<svg width="92" height="79" viewBox="0 0 92 79" fill="none" xmlns="http://www.w3.org/2000/svg">
<circle cx="39" cy="39.5332" r="39" fill="#F8F7FB"/>
<path opacity="0.3" d="M39.0121 38.8999C44.0511 38.8999 48.3871 34.3999 48.3871 28.5399C48.3871 22.7519 44.0271 18.4629 39.0121 18.4629C33.9961 18.4629 29.6371 22.8459 29.6371 28.5879C29.6371 34.3999 33.9971 38.8999 39.0121 38.8999ZM24.2931 60.6029H53.7311C57.4111 60.6029 58.7231 59.5489 58.7231 57.4859C58.7231 51.4389 51.1531 43.0959 39.0121 43.0959C26.8481 43.0959 19.2771 51.4389 19.2771 57.4859C19.2771 59.5489 20.5901 60.6029 24.2931 60.6029Z" fill="#0866FF"/>
<path d="M76 78.5332C84.8366 78.5332 92 71.3698 92 62.5332C92 53.6966 84.8366 46.5332 76 46.5332C67.1634 46.5332 60 53.6966 60 62.5332C60 71.3698 67.1634 78.5332 76 78.5332Z" fill="#0866FF"/>
<path d="M75.495 70.5332C75.2507 70.5332 75.0476 70.4511 74.8857 70.2868C74.7238 70.1225 74.6429 69.9189 74.6429 69.6761V63.3903H68.3571C68.1143 63.3903 67.9107 63.3077 67.7464 63.1425C67.5821 62.9772 67.5 62.7725 67.5 62.5282C67.5 62.2839 67.5821 62.0808 67.7464 61.9189C67.9107 61.757 68.1143 61.6761 68.3571 61.6761H74.6429V55.3903C74.6429 55.1475 74.7255 54.9439 74.8907 54.7796C75.056 54.6153 75.2607 54.5332 75.505 54.5332C75.7493 54.5332 75.9524 54.6153 76.1143 54.7796C76.2762 54.9439 76.3571 55.1475 76.3571 55.3903V61.6761H82.6429C82.8857 61.6761 83.0893 61.7587 83.2536 61.9239C83.4179 62.0892 83.5 62.2939 83.5 62.5382C83.5 62.7825 83.4179 62.9856 83.2536 63.1475C83.0893 63.3094 82.8857 63.3903 82.6429 63.3903H76.3571V69.6761C76.3571 69.9189 76.2745 70.1225 76.1093 70.2868C75.944 70.4511 75.7393 70.5332 75.495 70.5332Z" fill="white"/>
</svg>
