<svg width="16" height="17" viewBox="0 0 16 17" fill="none" xmlns="http://www.w3.org/2000/svg">
<path d="M5.57387 1.4104C3.97522 1.96499 2.59654 3.01761 1.64035 4.41366C0.684163 5.8097 0.200854 7.47558 0.261418 9.16661C0.321982 10.8576 0.923226 12.4847 1.97684 13.8087C3.03045 15.1328 4.48089 16.0841 6.11512 16.5229C7.44002 16.8648 8.82813 16.8798 10.1601 16.5667C11.3668 16.2956 12.4823 15.7159 13.3976 14.8842C14.3502 13.9921 15.0417 12.8573 15.3976 11.6017C15.7845 10.2362 15.8534 8.80032 15.5989 7.40415H8.15887V10.4904H12.4676C12.3815 10.9826 12.197 11.4524 11.9251 11.8717C11.6531 12.2909 11.2994 12.651 10.8851 12.9304C10.359 13.2784 9.76586 13.5126 9.14387 13.6179C8.52005 13.7339 7.88019 13.7339 7.25637 13.6179C6.6241 13.4872 6.02599 13.2262 5.50012 12.8517C4.6553 12.2536 4.02096 11.4041 3.68762 10.4242C3.34863 9.4259 3.34863 8.34366 3.68762 7.3454C3.9249 6.64567 4.31716 6.00857 4.83512 5.48165C5.42786 4.86759 6.17828 4.42865 7.00406 4.213C7.82984 3.99735 8.69906 4.01332 9.51637 4.25915C10.1548 4.45514 10.7387 4.79758 11.2214 5.25915C11.7072 4.77582 12.1922 4.29124 12.6764 3.8054C12.9264 3.54415 13.1989 3.2954 13.4451 3.0279C12.7083 2.34225 11.8435 1.80872 10.9001 1.4579C9.18225 0.83414 7.30259 0.817377 5.57387 1.4104Z" fill="white"/>
<path d="M5.57372 1.41003C7.3023 0.816605 9.18196 0.832927 10.9 1.45628C11.8435 1.80949 12.7079 2.34558 13.4437 3.03378C13.1937 3.30128 12.93 3.55128 12.675 3.81128C12.19 4.29545 11.7054 4.77795 11.2212 5.25878C10.7385 4.79721 10.1547 4.45477 9.51622 4.25878C8.69919 4.01208 7.82999 3.99519 7.00399 4.20996C6.178 4.42473 5.42711 4.86286 4.83372 5.47628C4.31576 6.0032 3.9235 6.6403 3.68622 7.34003L1.09497 5.33378C2.02248 3.49449 3.62841 2.08756 5.57372 1.41003Z" fill="#E33629"/>
<path d="M0.407438 7.32148C0.546714 6.63123 0.777942 5.96277 1.09494 5.33398L3.68619 7.34523C3.34721 8.34349 3.34721 9.42573 3.68619 10.424C2.82285 11.0907 1.9591 11.7607 1.09494 12.434C0.301376 10.8544 0.0593537 9.05461 0.407438 7.32148Z" fill="#F8BD00"/>
<path d="M8.15876 7.40234H15.5988C15.8533 8.79851 15.7844 10.2344 15.3975 11.5998C15.0416 12.8554 14.3501 13.9903 13.3975 14.8823C12.5613 14.2298 11.7213 13.5823 10.885 12.9298C11.2996 12.6502 11.6535 12.2897 11.9254 11.87C12.1973 11.4503 12.3817 10.98 12.4675 10.4873H8.15876C8.15751 9.45984 8.15876 8.43109 8.15876 7.40234Z" fill="#587DBD"/>
<path d="M1.09375 12.4338C1.95792 11.7672 2.82167 11.0972 3.685 10.4238C4.01901 11.4041 4.65426 12.2537 5.5 12.8513C6.02751 13.2242 6.62691 13.483 7.26 13.6113C7.88382 13.7273 8.52368 13.7273 9.1475 13.6113C9.7695 13.506 10.3626 13.2719 10.8888 12.9238C11.725 13.5763 12.565 14.2238 13.4013 14.8763C12.4861 15.7085 11.3705 16.2887 10.1638 16.5601C8.83176 16.8732 7.44366 16.8582 6.11875 16.5163C5.07088 16.2365 4.09209 15.7433 3.24375 15.0676C2.34583 14.3547 1.61244 13.4563 1.09375 12.4338Z" fill="#319F43"/>
</svg>
